<svg width="350" height="63" viewBox="0 0 350 63" fill="none" xmlns="http://www.w3.org/2000/svg">
<g clip-path="url(#clip0_2172_706)">
<path fill-rule="evenodd" clip-rule="evenodd" d="M66.9136 17.1222C66.5776 17.4586 66.311 17.8584 66.1291 18.2986C65.9472 18.7389 65.8535 19.2109 65.8535 19.6877C65.8535 20.1645 65.9472 20.6365 66.1291 21.0768C66.311 21.517 66.5776 21.9168 66.9136 22.2532L74.1448 29.5254L74.2171 29.6062C74.2894 29.6789 74.4019 29.8001 74.5385 29.9617C74.8976 30.3842 75.2329 30.8266 75.5428 31.2869C75.9301 31.6697 76.2376 32.1262 76.4476 32.6297C76.6575 33.1333 76.7657 33.6739 76.7657 34.22C76.7657 34.766 76.6575 35.3066 76.4476 35.8102C76.2376 36.3138 75.9301 36.7703 75.5428 37.1531C75.2332 37.6109 74.8978 38.0506 74.5385 38.4702L74.2171 38.8338L74.1448 38.9065L66.9136 46.1787C66.237 46.8591 65.8569 47.7819 65.8569 48.7442C65.8569 49.7064 66.237 50.6292 66.9136 51.3097C67.5901 51.9901 68.5078 52.3723 69.4646 52.3723C70.4214 52.3723 71.339 51.9901 72.0156 51.3097L79.2468 44.0375L86.4781 36.7653C86.8141 36.4289 87.0806 36.0291 87.2626 35.5889C87.4445 35.1486 87.5381 34.6765 87.5381 34.1998C87.5381 33.723 87.4445 33.251 87.2626 32.8107C87.0806 32.3705 86.8141 31.9707 86.4781 31.6343L79.2468 24.3621L72.0156 17.0899C71.679 16.7541 71.2798 16.4886 70.8409 16.3084C70.402 16.1282 69.932 16.037 69.4579 16.04C68.9838 16.043 68.515 16.1401 68.0784 16.3259C67.6418 16.5116 67.2459 16.7822 66.9136 17.1222Z" fill="#104065"/>
<path fill-rule="evenodd" clip-rule="evenodd" d="M20.5933 17.1222C20.9293 17.4586 21.1959 17.8584 21.3778 18.2986C21.5597 18.7389 21.6534 19.2109 21.6534 19.6877C21.6534 20.1645 21.5597 20.6365 21.3778 21.0768C21.1959 21.517 20.9293 21.9168 20.5933 22.2532L13.3621 29.5254L13.2898 29.6062C13.2175 29.6789 13.105 29.8001 12.9684 29.9617C12.6093 30.3842 12.274 30.8266 11.964 31.2869C11.5768 31.6697 11.2692 32.1262 11.0593 32.6297C10.8494 33.1333 10.7412 33.6739 10.7412 34.22C10.7412 34.766 10.8494 35.3066 11.0593 35.8102C11.2692 36.3138 11.5768 36.7703 11.964 37.1531C12.2737 37.6109 12.6091 38.0506 12.9684 38.4702L13.2898 38.8338L13.3621 38.9065L20.5933 46.1787C21.2699 46.8591 21.65 47.7819 21.65 48.7442C21.65 49.7064 21.2699 50.6292 20.5933 51.3097C19.9167 51.9901 18.9991 52.3723 18.0423 52.3723C17.0855 52.3723 16.1679 51.9901 15.4913 51.3097L8.26004 44.0375L1.0288 36.7653C0.692825 36.4289 0.426223 36.0291 0.244309 35.5889C0.0623942 35.1486 -0.03125 34.6765 -0.03125 34.1998C-0.03125 33.723 0.0623942 33.251 0.244309 32.8107C0.426223 32.3705 0.692825 31.9707 1.0288 31.6343L8.26004 24.3621L15.4913 17.0899C15.8279 16.7541 16.2271 16.4886 16.666 16.3084C17.1049 16.1282 17.5749 16.037 18.049 16.04C18.5231 16.043 18.9919 16.1401 19.4285 16.3259C19.8651 16.5116 20.261 16.7822 20.5933 17.1222Z" fill="#104065"/>
<path d="M28.3145 23.1663V32.0545C31.8738 32.709 38.7033 33.8241 43.7572 33.8241C48.811 33.8241 55.6325 32.709 59.1918 32.0545V23.1663C55.6325 23.8208 48.803 24.9277 43.7572 24.9277C38.7114 24.9277 31.8738 23.8208 28.3145 23.1663Z" fill="#104065"/>
<path d="M43.7491 0.525513C35.2243 0.525513 28.3145 6.9897 28.3145 14.9487V23.1663C31.8738 23.8208 38.7033 24.9278 43.7572 24.9278C48.811 24.9278 55.6325 23.8208 59.1918 23.1663V14.9487C59.1918 6.98162 52.282 0.525513 43.7491 0.525513Z" fill="#FAD202"/>
<path d="M28.3145 40.1995V49.0877C31.8899 49.7341 38.6873 50.8411 43.717 50.8411C48.7467 50.8411 55.5361 49.7422 59.1115 49.0877V40.1995C55.5521 40.8459 48.7226 41.9609 43.6768 41.9609C38.631 41.9609 31.8658 40.8459 28.3145 40.1995Z" fill="#104065"/>
<path d="M43.758 50.833C38.7283 50.833 31.9309 49.726 28.3555 49.0796C28.8376 56.6427 35.5305 62.6463 43.75 62.6463C51.9695 62.6463 58.6704 56.6427 59.1525 49.0796C55.5771 49.7341 48.7797 50.833 43.758 50.833Z" fill="#FAD202"/>
<path d="M43.7572 33.8079C38.7033 33.8079 31.8738 32.6928 28.3145 32.0383V40.1994C31.8658 40.8458 38.7033 41.9608 43.7572 41.9608C48.811 41.9608 55.6325 40.8458 59.1918 40.1994V32.0383C55.6325 32.6928 48.803 33.8079 43.7572 33.8079Z" fill="#FAD202"/>
<path d="M122.313 32.6687C122.313 33.3232 122.859 33.8726 123.92 34.2847C124.98 34.6968 126.402 35.0927 127.937 35.5371C129.541 35.9388 131.112 36.4628 132.637 37.1047C134.245 37.8013 135.624 38.9415 136.614 40.3934C137.797 42.033 138.394 44.0259 138.31 46.0495C138.31 49.594 137.005 52.2874 134.397 54.1297C131.531 55.9949 128.167 56.9338 124.755 56.8205C117.877 56.8205 113.201 54.2159 110.727 49.0069L119.211 44.1587C120.079 46.7444 121.927 48.0372 124.755 48.0372C127.101 48.0372 128.274 47.3585 128.274 46.001C128.274 45.3465 127.712 44.7971 126.579 44.385C125.283 43.8792 123.954 43.4635 122.602 43.1406C121.004 42.6995 119.434 42.1598 117.902 41.5246C116.317 40.7989 114.936 39.6882 113.884 38.2925C112.773 36.7505 112.207 34.8787 112.277 32.9757C112.204 31.4533 112.498 29.9356 113.134 28.5523C113.771 27.1691 114.731 25.9615 115.933 25.0329C118.582 23.0984 121.796 22.1062 125.069 22.2129C127.642 22.1826 130.181 22.814 132.444 24.0471C134.675 25.2393 136.529 27.0364 137.795 29.2346L129.439 33.7595C128.368 31.8364 126.911 30.8749 125.069 30.8749C123.229 30.8345 122.313 31.4486 122.313 32.6687Z" fill="#104065"/>
<path d="M172.167 51.835C169.748 54.2842 166.66 55.9542 163.294 56.6324C159.929 57.3105 156.439 56.966 153.269 55.6428C150.099 54.3196 147.392 52.0775 145.494 49.2021C143.595 46.3267 142.59 42.9481 142.607 39.4965C142.56 37.2133 142.981 34.9449 143.846 32.833C144.71 30.7212 145.997 28.8112 147.629 27.2226C150.902 23.9864 155.308 22.1729 159.898 22.1729C164.488 22.1729 168.894 23.9864 172.167 27.2226C173.8 28.8101 175.089 30.7198 175.953 32.8319C176.817 34.9441 177.238 37.2131 177.188 39.4965C177.234 41.789 176.812 44.0666 175.948 46.1887C175.085 48.3108 173.798 50.2324 172.167 51.835ZM154.547 45.0718C155.986 46.4605 157.903 47.2359 159.898 47.2359C161.892 47.2359 163.81 46.4605 165.249 45.0718C166.634 43.5494 167.403 41.5603 167.403 39.4965C167.403 37.4326 166.634 35.4436 165.249 33.9211C163.813 32.5269 161.894 31.7477 159.898 31.7477C157.901 31.7477 155.983 32.5269 154.547 33.9211C153.161 35.4436 152.393 37.4326 152.393 39.4965C152.393 41.5603 153.161 43.5494 154.547 45.0718Z" fill="#104065"/>
<path d="M201.975 18.4959C197.937 18.1457 195.914 19.6756 195.909 23.0854H201.975V32.5393H195.893V55.8992H186.123V32.5393H181.752V23.0854H186.123C186.123 18.3666 187.462 14.7817 190.14 12.3307C192.818 9.87966 196.777 8.78345 202.015 9.04202L201.975 18.4959Z" fill="#104065"/>
<path d="M229.239 32.5394H222.514V44.1507C222.447 44.6848 222.567 45.2256 222.853 45.6809C223.139 46.1362 223.572 46.4778 224.08 46.6475C225.769 47.0482 227.513 47.1602 229.239 46.9787V55.867C223.02 56.5188 218.713 55.9289 216.319 54.0974C213.924 52.2659 212.741 48.9503 212.767 44.1507V32.5394H207.545V23.0855H212.767V16.8557L222.554 13.8983V23.0855H229.279L229.239 32.5394Z" fill="#104065"/>
<path d="M256.749 21.2028C258.842 21.1859 260.914 21.6291 262.82 22.5014C264.725 23.3737 266.418 24.654 267.78 26.253C270.829 29.5929 272.466 33.9947 272.344 38.5268C272.459 43.0771 270.824 47.4967 267.78 50.8653C266.406 52.4434 264.708 53.7039 262.804 54.5602C260.9 55.4166 258.834 55.8486 256.749 55.8266C252.57 55.8266 249.33 54.4934 247.027 51.8269V54.9054H237.24V8.9613H247.027V25.2026C249.335 22.5361 252.576 21.2028 256.749 21.2028ZM249.18 44.3689C249.926 45.0888 250.808 45.6513 251.774 46.0232C252.74 46.3951 253.77 46.5689 254.804 46.5343C255.826 46.5705 256.844 46.3971 257.797 46.0248C258.751 45.6525 259.618 45.0891 260.348 44.3689C261.776 42.7618 262.566 40.6821 262.566 38.5268C262.566 36.3716 261.776 34.2919 260.348 32.6848C259.619 31.963 258.752 31.3986 257.799 31.0262C256.845 30.6538 255.826 30.4813 254.804 30.5193C253.77 30.483 252.74 30.6559 251.773 31.0279C250.807 31.3999 249.925 31.9634 249.18 32.6848C247.79 34.3104 247.026 36.3831 247.026 38.5268C247.026 40.6706 247.79 42.7433 249.18 44.3689Z" fill="#FAD21E"/>
<path d="M287.618 42.4618C288.748 45.5269 291.359 47.0595 295.452 47.0595C296.612 47.1207 297.772 46.9294 298.852 46.4985C299.933 46.0676 300.908 45.4073 301.711 44.5627L309.545 49.0876C306.331 53.5964 301.588 55.8508 295.315 55.8508C289.836 55.8508 285.443 54.2105 282.138 50.9299C279.007 47.5843 277.258 43.1663 277.246 38.5719C277.234 33.9774 278.96 29.5503 282.074 26.1883C285.336 22.87 289.511 21.2081 294.6 21.2028C296.808 21.146 299.002 21.5611 301.038 22.4205C303.074 23.2799 304.905 24.5641 306.411 26.1883C307.987 27.8189 309.221 29.7515 310.039 31.871C310.858 33.9906 311.244 36.254 311.176 38.5268C311.185 39.8488 311.053 41.1681 310.782 42.4618H287.618ZM287.425 35.1169H301.454C300.5 31.6855 298.194 29.9698 294.536 29.9698C290.754 29.9698 288.384 31.6855 287.425 35.1169Z" fill="#FAD21E"/>
<path d="M326.45 42.4618C327.58 45.5269 330.191 47.0595 334.284 47.0595C335.444 47.1207 336.604 46.9294 337.685 46.4985C338.765 46.0676 339.74 45.4073 340.543 44.5627L348.377 49.0876C345.163 53.5964 340.42 55.8508 334.147 55.8508C328.668 55.8508 324.275 54.2105 320.97 50.9299C317.839 47.5843 316.09 43.1663 316.078 38.5719C316.066 33.9774 317.792 29.5503 320.906 26.1883C324.168 22.87 328.344 21.2081 333.432 21.2028C335.64 21.146 337.834 21.5611 339.87 22.4205C341.906 23.2799 343.737 24.5641 345.243 26.1883C346.819 27.8189 348.053 29.7515 348.871 31.871C349.69 33.9906 350.076 36.254 350.008 38.5268C350.017 39.8488 349.885 41.1681 349.614 42.4618H326.45ZM326.257 35.1169H340.286C339.327 31.6855 337.021 29.9698 333.368 29.9698C329.565 29.9698 327.195 31.6855 326.257 35.1169Z" fill="#FAD21E"/>
</g>
<defs>
<clipPath id="clip0_2172_706">
<rect width="350" height="62.1127" fill="white" transform="translate(0 0.525513)"/>
</clipPath>
</defs>
</svg>