<svg width="150" height="27" viewBox="0 0 150 27" fill="none" xmlns="http://www.w3.org/2000/svg">
<path fill-rule="evenodd" clip-rule="evenodd" d="M18.75 0C15.0952 0 12.1328 2.7512 12.1328 6.14495V9.64801C13.658 9.92469 16.5876 10.3992 18.7509 10.3992C20.9143 10.3992 23.842 9.92507 25.3681 9.64839V6.14495C25.3681 2.7512 22.4048 0 18.75 0ZM25.3681 13.4299C23.842 13.7066 20.9143 14.1806 18.7509 14.1806C16.5876 14.1806 13.658 13.7062 12.1328 13.4295V20.3256C12.1328 23.7194 15.0952 26.4706 18.75 26.4706C22.4048 26.4706 25.3681 23.7194 25.3681 20.3256V13.4299ZM12.1328 20.6865V16.905C13.6576 17.1816 16.5876 17.6561 18.7512 17.6561C20.914 17.6561 23.8424 17.182 25.3677 16.9053V20.6868C23.8424 20.9636 20.914 21.4376 18.7512 21.4376C16.5876 21.4376 13.6576 20.9632 12.1328 20.6865Z" fill="#FFD702"/>
<path fill-rule="evenodd" clip-rule="evenodd" d="M28.6741 7.07014C28.0702 7.67408 28.0702 8.65325 28.6741 9.25719L31.7639 12.347L31.7676 12.3508C31.7732 12.3566 31.7839 12.3677 31.799 12.3838C31.8293 12.4162 31.8766 12.4679 31.9352 12.536C32.0539 12.6737 32.2114 12.8694 32.3665 13.0992C32.7144 13.6147 32.8895 14.0665 32.8895 14.3496C32.8895 14.6326 32.7144 15.0844 32.3665 15.6C32.2114 15.8297 32.0539 16.0254 31.9352 16.1632C31.8766 16.2312 31.8293 16.2829 31.799 16.3153C31.7839 16.3314 31.7732 16.3426 31.7676 16.3483L31.7632 16.3529L28.6741 19.442C28.0702 20.0459 28.0702 21.0251 28.6741 21.629C29.278 22.2329 30.2572 22.2329 30.8611 21.629L33.9564 18.5337L33.9594 18.5307L37.047 15.4431C37.651 14.8392 37.651 13.86 37.047 13.256L33.9564 10.1655L30.8611 7.07014C30.2572 6.4662 29.278 6.4662 28.6741 7.07014Z" fill="white"/>
<path fill-rule="evenodd" clip-rule="evenodd" d="M8.82591 7.07014C9.42984 7.67408 9.42984 8.65325 8.82591 9.25719L5.73612 12.347L5.7324 12.3508C5.7268 12.3566 5.71609 12.3677 5.701 12.3838C5.67073 12.4162 5.62344 12.4679 5.56482 12.536C5.44615 12.6737 5.28861 12.8694 5.13354 13.0992C4.7856 13.6147 4.61047 14.0665 4.61047 14.3496C4.61047 14.6326 4.7856 15.0844 5.13354 15.6C5.28861 15.8297 5.44615 16.0254 5.56482 16.1632C5.62344 16.2312 5.67073 16.2829 5.701 16.3153C5.71609 16.3314 5.7268 16.3426 5.7324 16.3483L5.73683 16.3529L8.82591 19.442C9.42984 20.0459 9.42984 21.0251 8.82591 21.629C8.22197 22.2329 7.24279 22.2329 6.63886 21.629L3.54355 18.5337L3.54061 18.5307L0.452952 15.4431C-0.150984 14.8392 -0.150984 13.86 0.452952 13.256L3.54355 10.1655L6.63886 7.07014C7.24279 6.4662 8.22197 6.4662 8.82591 7.07014Z" fill="white"/>
<path d="M52.4186 13.6983C52.4186 13.978 52.6517 14.211 53.1178 14.3975C53.6025 14.5653 54.1805 14.7424 54.8516 14.9288C55.5228 15.0966 56.194 15.3203 56.8651 15.6C57.5363 15.8797 58.1049 16.3457 58.571 16.9983C59.0558 17.6322 59.2981 18.4338 59.2981 19.4033C59.2981 20.9134 58.7388 22.06 57.6202 22.8431C56.5016 23.6074 55.122 23.9896 53.4813 23.9896C50.5356 23.9896 48.5314 22.8803 47.4688 20.6617L51.1043 18.5923C51.4771 19.6923 52.2695 20.2423 53.4813 20.2423C54.4881 20.2423 54.9915 19.9533 54.9915 19.3753C54.9915 19.0957 54.7491 18.8626 54.2644 18.6762C53.7983 18.4898 53.2296 18.3126 52.5585 18.1449C51.8873 17.9584 51.2161 17.7254 50.5449 17.4457C49.8738 17.1474 49.2958 16.6906 48.8111 16.0754C48.345 15.4602 48.112 14.7051 48.112 13.8102C48.112 12.356 48.634 11.2281 49.678 10.4264C50.7407 9.62471 52.0458 9.22388 53.5932 9.22388C54.7491 9.22388 55.8025 9.48489 56.7533 10.0069C57.7041 10.5103 58.4685 11.2467 59.0464 12.2162L55.4669 14.1458C55.0194 13.3255 54.3949 12.9153 53.5932 12.9153C52.8102 12.9153 52.4186 13.1763 52.4186 13.6983Z" fill="white"/>
<path d="M73.7845 21.8643C72.3489 23.2812 70.5964 23.9896 68.527 23.9896C66.4575 23.9896 64.705 23.2812 63.2694 21.8643C61.8339 20.4287 61.1161 18.6762 61.1161 16.6068C61.1161 14.5373 61.8339 12.7941 63.2694 11.3772C64.705 9.94166 66.4575 9.22388 68.527 9.22388C70.5964 9.22388 72.3489 9.94166 73.7845 11.3772C75.22 12.7941 75.9378 14.5373 75.9378 16.6068C75.9378 18.6762 75.22 20.4287 73.7845 21.8643ZM66.2338 18.9838C66.849 19.5991 67.6134 19.9067 68.527 19.9067C69.4405 19.9067 70.2049 19.5991 70.8201 18.9838C71.4354 18.3686 71.743 17.5762 71.743 16.6068C71.743 15.6373 71.4354 14.8449 70.8201 14.2297C70.2049 13.6145 69.4405 13.3068 68.527 13.3068C67.6134 13.3068 66.849 13.6145 66.2338 14.2297C65.6185 14.8449 65.3109 15.6373 65.3109 16.6068C65.3109 17.5762 65.6185 18.3686 66.2338 18.9838Z" fill="white"/>
<path d="M86.5603 7.65781C84.8264 7.50866 83.9595 8.16119 83.9595 9.61539H86.5603V13.6424H83.9595V23.5981H79.7647V13.6424H77.891V9.61539H79.7647C79.7647 7.60188 80.3333 6.0731 81.4706 5.02906C82.6079 3.96637 84.3044 3.50028 86.5603 3.63079V7.65781Z" fill="white"/>
<path d="M98.2422 13.6424H95.3618V18.5923C95.3618 19.1516 95.5855 19.5058 96.0329 19.655C96.4804 19.8041 97.2168 19.8507 98.2422 19.7948V23.5981C95.5762 23.8778 93.7305 23.6261 92.7051 22.8431C91.6797 22.0414 91.167 20.6245 91.167 18.5923V13.6424H88.9297V9.61539H91.167V6.95867L95.3618 5.70023V9.61539H98.2422V13.6424Z" fill="white"/>
<path d="M110.034 8.81095C111.879 8.81095 113.455 9.52873 114.76 10.9643C116.065 12.3812 116.717 14.1244 116.717 16.1938C116.717 18.2633 116.065 20.0158 114.76 21.4513C113.455 22.8682 111.879 23.5767 110.034 23.5767C108.244 23.5767 106.855 23.0081 105.867 21.8708V23.1852H101.672V3.60938H105.867V10.5168C106.855 9.37958 108.244 8.81095 110.034 8.81095ZM106.79 18.6828C107.423 19.298 108.225 19.6056 109.195 19.6056C110.164 19.6056 110.956 19.298 111.572 18.6828C112.206 18.0675 112.522 17.2379 112.522 16.1938C112.522 15.1498 112.206 14.3201 111.572 13.7049C110.956 13.0897 110.164 12.782 109.195 12.782C108.225 12.782 107.423 13.0897 106.79 13.7049C106.174 14.3201 105.867 15.1498 105.867 16.1938C105.867 17.2379 106.174 18.0675 106.79 18.6828Z" fill="#FFD702"/>
<path d="M123.263 17.8718C123.747 19.1768 124.866 19.8293 126.618 19.8293C127.756 19.8293 128.651 19.4751 129.303 18.7666L132.659 20.6963C131.279 22.6166 129.247 23.5767 126.562 23.5767C124.213 23.5767 122.33 22.8776 120.913 21.4793C119.515 20.081 118.816 18.3192 118.816 16.1938C118.816 14.0871 119.506 12.3346 120.885 10.9363C122.284 9.51941 124.074 8.81095 126.255 8.81095C128.287 8.81095 129.974 9.51941 131.317 10.9363C132.678 12.3346 133.358 14.0871 133.358 16.1938C133.358 16.7904 133.302 17.3497 133.19 17.8718H123.263ZM123.179 14.7396H129.191C128.781 13.2668 127.793 12.5304 126.227 12.5304C124.605 12.5304 123.589 13.2668 123.179 14.7396Z" fill="#FFD702"/>
<path d="M139.904 17.8718C140.389 19.1768 141.507 19.8293 143.26 19.8293C144.397 19.8293 145.292 19.4751 145.945 18.7666L149.301 20.6963C147.921 22.6166 145.889 23.5767 143.204 23.5767C140.855 23.5767 138.972 22.8776 137.555 21.4793C136.157 20.081 135.458 18.3192 135.458 16.1938C135.458 14.0871 136.147 12.3346 137.527 10.9363C138.925 9.51941 140.715 8.81095 142.896 8.81095C144.929 8.81095 146.616 9.51941 147.958 10.9363C149.319 12.3346 150 14.0871 150 16.1938C150 16.7904 149.944 17.3497 149.832 17.8718H139.904ZM139.82 14.7396H145.833C145.423 13.2668 144.435 12.5304 142.868 12.5304C141.246 12.5304 140.23 13.2668 139.82 14.7396Z" fill="#FFD702"/>
</svg>
